#!OML:ASF Y:\EmotionMaleHayes\Project 1\Capture day 1\Session 1\Male1.ASF
:FULLY-SPECIFIED
:DEGREES
1101
root 26.9797 17.129 15.1167 6.08454 74.8882 1.67422
lowerback 12.8012 1.79992 -13.0704
upperback 8.13263 1.58296 -5.33688
thorax 1.42453 0.670619 1.4859
lowerneck -20.4014 8.27748 8.82335
upperneck 30.572 12.6014 -8.49459
head 15.2801 5.36643 -2.51801
rclavicle 1.82882e-014 -1.59028e-015
rhumerus -57.6511 9.86319 -86.5479
rradius 47.9222
rwrist -6.91793
rhand -6.39069 -35.7523
rfingers 7.12502
rthumb 19.4567 -64.7988
lclavicle 1.82882e-014 -1.59028e-015
lhumerus -12.7323 -26.1843 85.2395
lradius 61.9681
lwrist -10.8326
lhand -18.7983 -26.9639
lfingers 7.12502
lthumb 7.49986 2.88313
rfemur -18.6926 -2.44381 13.4179
rtibia 21.7424
rfoot -10.092 0.613718
rtoes 3.74266
lfemur 3.5937 -1.3391 -24.783
ltibia 14.9406
lfoot -20.69 11.1491
ltoes 7.2743
1102
root 27.0816 17.1207 15.15 7.32581 75.4509 3.2801
lowerback 12.6556 1.67854 -13.3801
upperback 8.28009 1.44908 -5.24985
thorax 1.68275 0.577111 1.76559
lowerneck -20.8821 8.25906 8.70002
upperneck 30.8768 12.6063 -8.43955
head 15.5164 5.34048 -2.46173
rclavicle 6.2816e-014 3.02153e-014
rhumerus -58.2783 10.322 -86.5148
rradius 48.6491
rwrist -6.939
rhand -5.83089 -35.683
rfingers 7.12502
rthumb 19.9949 -64.6743
lclavicle 6.2816e-014 3.02153e-014
lhumerus -11.7027 -26.6526 85.0326
lradius 62.5735
lwrist -11.374
lhand -18.7988 -27.1409
lfingers 7.12502
lthumb 7.49939 2.70614
rfemur -18.6926 -2.44381 13.4179
rtibia 21.7424
rfoot -10.092 0.613718
rtoes 3.74266
lfemur 4.48319 -1.35798 -25.1403
ltibia 14.6303
lfoot -20.6096 10.7198
ltoes 7.66989
1103
root 27.1847 17.113 15.1879 8.13123 76.0859 4.40738
lowerback 12.4492 1.58517 -13.4609
upperback 8.38555 1.37651 -5.17213
thorax 1.91879 0.522659 1.90503
lowerneck -20.7133 8.31105 8.92156
upperneck 31.0373 12.7242 -8.61288
head 15.6041 5.40083 -2.55278
rclavicle -5.32743e-014 -5.40694e-014
rhumerus -58.9414 10.6398 -86.579
rradius 49.2255
rwrist -6.99572
rhand -4.98059 -35.6748
rfingers 7.12502
rthumb 20.8121 -64.5786
lclavicle -5.32743e-014 -5.40694e-014
lhumerus -10.8668 -27.4185 84.7952
lradius 63.1855
lwrist -11.7096
lhand -18.97 -27.2416
lfingers 7.12502
lthumb 7.33411 2.6113
rfemur -18.6926 -2.44381 13.4179
rtibia 21.7424
rfoot -10.092 0.613718
rtoes 3.74266
lfemur 5.33805 -1.34182 -25.2687
ltibia 14.3156
lfoot -20.2697 10.3828
ltoes 6.98025
1104
root 27.2862 17.1075 15.2176 9.21276 76.8041 5.6999
lowerback 12.2552 1.46984 -13.3889
upperback 8.29695 1.25236 -5.15292
thorax 1.94046 0.463263 1.90439
lowerneck -20.1471 8.20958 9.13271
upperneck 31.1659 12.6019 -8.64764
head 15.5421 5.39852 -2.64846
rclavicle 5.56597e-015 -2.38542e-014
rhumerus -59.9948 10.918 -86.8206
rradius 49.8057
rwrist -7.0828
rhand -4.67571 -35.476
rfingers 7.12502
rthumb 21.105 -64.3474
lclavicle 5.56597e-015 -2.38542e-014
lhumerus -10.2844 -28.3712 84.6121
lradius 63.7059
lwrist -11.7033
lhand -19.1484 -27.2881
lfingers 7.12502
lthumb 7.16192 2.57068
rfemur -18.6926 -2.44381 13.4179
rtibia 21.7424
rfoot -10.092 0.613718
rtoes 3.74266
lfemur 6.06583 -1.46423 -25.528
ltibia 14.035
lfoot -19.7381 10.2274
ltoes 5.67014
1105
root 27.3878 17.1036 15.2481 9.81608 77.6011 6.54787
lowerback 12.2495 1.24104 -13.4523
upperback 8.37161 0.955245 -4.92721
thorax 2.06097 0.2976 2.21035
lowerneck -20.4481 8.24055 8.95337
upperneck 31.3869 12.7331 -8.65762
head 15.7183 5.41812 -2.58772
rclavicle -1.51076e-014 9.54166e-015
rhumerus -60.6227 11.8046 -86.9749
rradius 50.4144
rwrist -7.13619
rhand -4.58172 -35.3503
rfingers 7.12502
rthumb 21.1953 -64.2116
lclavicle -1.51076e-014 9.54166e-015
lhumerus -9.31624 -28.7145 84.3612
lradius 64.2672
lwrist -11.5724
lhand -19.223 -27.1779
lfingers 7.12502
lthumb 7.08992 2.68332
rfemur -18.6926 -2.44381 13.4179
rtibia 21.7424
rfoot -10.092 0.613718
rtoes 3.74266
lfemur 6.82488 -1.73804 -25.628
ltibia 13.762
lfoot -19.5116 10.1456
ltoes 5.6638
